<svg width="128" height="128" viewBox="0 0 128 128" fill="none" xmlns="http://www.w3.org/2000/svg" role="img" aria-labelledby="title desc">
  <title id="title">Walk-in queue</title>
  <desc id="desc">People queue icon for walk-in action</desc>
  <rect x="14" y="18" width="100" height="92" rx="22" fill="#FFFDF8" stroke="#DCC7B4" stroke-width="5"/>
  <circle cx="42" cy="49" r="10" fill="#FCE2CD" stroke="#3A2D25" stroke-width="5"/>
  <path d="M28 83C30.2 70.5 36 64 42 64C48 64 53.8 70.5 56 83" stroke="#3A2D25" stroke-width="5" stroke-linecap="round"/>
  <circle cx="70" cy="48" r="10" fill="#DDEEDB" stroke="#3A2D25" stroke-width="5"/>
  <path d="M56 83C58.2 70.5 64 64 70 64C76 64 81.8 70.5 84 83" stroke="#3A2D25" stroke-width="5" stroke-linecap="round"/>
  <circle cx="96" cy="50" r="8" fill="#F7E3A1" stroke="#3A2D25" stroke-width="5"/>
  <path d="M84 83C86 72 91 66 96 66C101 66 105.5 72 107 83" stroke="#3A2D25" stroke-width="5" stroke-linecap="round"/>
  <path d="M30 96H98" stroke="#E7A77C" stroke-width="6" stroke-linecap="round"/>
</svg>
