<?xml version="1.0" encoding="UTF-8"?>
<svg xmlns="http://www.w3.org/2000/svg" width="720" height="121.50" viewBox="0 0 6400 1080" role="img" aria-label="barber queue" data-status="candidate-reference-only" data-candidate="B Measured Slots" preserveAspectRatio="xMidYMid meet">
  <title>Candidate B — Measured Slots — barber queue wordmark sketch</title>
  <desc>Reference-led source-owned outlined SVG candidate. Exact lowercase wording: barber queue. Status: candidate for human review only; not approved for runtime or derived glyph use.</desc>
  <metadata>
    <bq:wordmark xmlns:bq="https://barber-queue.local/wordmark-metadata">
      <bq:status>candidate-reference-only</bq:status>
      <bq:gate>HUMAN_REVIEW_BARBER_QUEUE_WORDMARK_R1</bq:gate>
      <bq:wording>barber queue</bq:wording>
      <bq:construction>LINE Seed Sans TH Regular outlines for barber; ExtraBold outlines for queue; equal 600-unit queue origins; one custom transparent notch cut into the final e.</bq:construction>
      <bq:source-regular-sha256>caf74c95ba957707253e40747d8364c937970df80551ab0766afc073d1fd90d6</bq:source-regular-sha256>
      <bq:source-bold-sha256>63a428a7989a73de4e908092717de3a70a2c128b7b01b35a3821f39db22a2003</bq:source-bold-sha256>
      <bq:source-extra-bold-sha256>d3650b99c0ba298365c7a8a95fcc628421d5a8e23fc99484a23a52f3c855c99b</bq:source-extra-bold-sha256>
    </bq:wordmark>
  </metadata>
  <defs>
    <clipPath id="b-final-e-notch-clip" clipPathUnits="userSpaceOnUse">
      <path id="b-custom-next-slot-notch" data-source="custom-negative-geometry" clip-rule="evenodd" d="M0 0H6400V1080H0ZM6156 482H6320L6278 542H6156Z"/>
    </clipPath>
  </defs>
  <g id="wordmark-b" fill="#3A2D25" fill-rule="nonzero">
    <path id="b-base-00-b" data-source="LINESeedSansTH_W_Rg.woff2" d="M400 810Q341 810 292 783Q243 756 215 708L211 789Q211 800 200 800L149 800Q138 800 138 789L138 60Q138 50 149 50L208 50Q218 50 218 60L218 381Q246 336 294 310.50Q342 285 400 285Q473 285 527.50 318.50Q582 352 612 411.50Q642 471 642 547Q642 624 612.50 683.50Q583 743 528 776.50Q473 810 400 810ZM385 736Q462 736 510.50 684Q559 632 559 547Q559 492 537 449Q515 406 475.50 382.50Q436 359 385 359Q334 359 294.50 382.50Q255 406 233 449Q211 492 211 547Q211 632 259.50 684Q308 736 385 736Z"/>
    <path id="b-base-01-a" data-source="LINESeedSansTH_W_Rg.woff2" d="M948 810Q876 810 821 776.50Q766 743 736.50 683.50Q707 624 707 547Q707 471 736.50 411.50Q766 352 821 318.50Q876 285 948 285Q1008 285 1057.50 312Q1107 339 1134 386L1137 305Q1137 295 1148 295L1200 295Q1210 295 1210 305L1210 789Q1210 800 1200 800L1148 800Q1137 800 1137 789L1134 708Q1107 755 1057.50 782.50Q1008 810 948 810ZM963 736Q1040 736 1088.50 684Q1137 632 1137 547Q1137 492 1115 449Q1093 406 1053.50 382.50Q1014 359 963 359Q912 359 872.50 382.50Q833 406 811 449Q789 492 789 547Q789 632 837.50 684Q886 736 963 736Z"/>
    <path id="b-base-02-r" data-source="LINESeedSansTH_W_Rg.woff2" d="M1354 800Q1343 800 1343 789L1343 305Q1343 295 1354 295L1405 295Q1416 295 1416 305L1420 392Q1448 343 1493.50 315.50Q1539 288 1592 288Q1612 288 1619 290Q1628 291 1628 301L1628 359Q1628 369 1619 369Q1613 369 1602.50 367.50Q1592 366 1583 366Q1542 366 1505 387Q1468 408 1445.50 445Q1423 482 1423 526L1423 789Q1423 800 1413 800Z"/>
    <path id="b-base-03-b" data-source="LINESeedSansTH_W_Rg.woff2" d="M1985 810Q1926 810 1877 783Q1828 756 1800 708L1796 789Q1796 800 1785 800L1734 800Q1723 800 1723 789L1723 60Q1723 50 1734 50L1793 50Q1803 50 1803 60L1803 381Q1831 336 1879 310.50Q1927 285 1985 285Q2058 285 2112.50 318.50Q2167 352 2197 411.50Q2227 471 2227 547Q2227 624 2197.50 683.50Q2168 743 2113 776.50Q2058 810 1985 810ZM1970 736Q2047 736 2095.50 684Q2144 632 2144 547Q2144 492 2122 449Q2100 406 2060.50 382.50Q2021 359 1970 359Q1919 359 1879.50 382.50Q1840 406 1818 449Q1796 492 1796 547Q1796 632 1844.50 684Q1893 736 1970 736Z"/>
    <path id="b-base-04-e" data-source="LINESeedSansTH_W_Rg.woff2" d="M2539 810Q2464 810 2408 776Q2352 742 2322 682.50Q2292 623 2292 547Q2292 471 2322.50 411.50Q2353 352 2409 318.50Q2465 285 2539 285Q2649 285 2709.50 360.50Q2770 436 2768 562Q2768 573 2757 573L2375 573Q2383 649 2426.50 693Q2470 737 2539 737Q2643 737 2686 652Q2690 644 2700 647L2750 665Q2755 667 2756.50 670.50Q2758 674 2756 678Q2724 744 2668.50 777Q2613 810 2539 810ZM2539 357Q2474 357 2430 398Q2386 439 2376 510L2683 510Q2678 440 2639.50 398.50Q2601 357 2539 357Z"/>
    <path id="b-base-05-r" data-source="LINESeedSansTH_W_Rg.woff2" d="M2879 800Q2868 800 2868 789L2868 305Q2868 295 2879 295L2930 295Q2941 295 2941 305L2945 392Q2973 343 3018.50 315.50Q3064 288 3117 288Q3137 288 3144 290Q3153 291 3153 301L3153 359Q3153 369 3144 369Q3138 369 3127.50 367.50Q3117 366 3108 366Q3067 366 3030 387Q2993 408 2970.50 445Q2948 482 2948 526L2948 789Q2948 800 2938 800Z"/>
    <path id="b-base-06-q" data-source="LINESeedSansTH_W_XBd.woff2" d="M3763 1018Q3747 1018 3747 1002L3747 759Q3691 810 3608 810Q3535 810 3479 775.50Q3423 741 3392 678.50Q3361 616 3361 534Q3361 452 3392 390Q3423 328 3479 293.50Q3535 259 3608 259Q3708 259 3767 331L3769 284Q3769 277 3773.50 273Q3778 269 3785 269L3911 269Q3918 269 3922.50 273Q3927 277 3927 284L3927 1002Q3927 1018 3911 1018ZM3652 652Q3701 652 3731 619Q3761 586 3761 534Q3761 482 3731 449.50Q3701 417 3652 417Q3603 417 3573 449.50Q3543 482 3543 534Q3543 586 3573 619Q3603 652 3652 652Z"/>
    <path id="b-base-07-u" data-source="LINESeedSansTH_W_XBd.woff2" d="M4180 810Q4087 810 4035.50 758Q3984 706 3984 615L3984 284Q3984 277 3988.50 273Q3993 269 4000 269L4148 269Q4155 269 4159.50 273Q4164 277 4164 284L4164 548Q4164 603 4182 627.50Q4200 652 4239 652Q4279 652 4303 622Q4327 592 4327 535L4327 284Q4327 277 4331.50 273Q4336 269 4343 269L4491 269Q4498 269 4502.50 273Q4507 277 4507 284L4507 784Q4507 800 4491 800L4366 800Q4349 800 4349 784L4347 736Q4289 810 4180 810Z"/>
    <path id="b-base-08-e" data-source="LINESeedSansTH_W_XBd.woff2" d="M4839 810Q4756 810 4693 775Q4630 740 4595.50 677.50Q4561 615 4561 534Q4561 453 4595.50 391Q4630 329 4693 294Q4756 259 4839 259Q4926 259 4987 297.50Q5048 336 5077.50 405Q5107 474 5102 565Q5101 580 5085 580L4743 580Q4753 619 4778 640Q4803 661 4840 661Q4900 661 4928 623Q4937 613 4949 616L5077 659Q5087 664 5087 672L5085 680Q5050 745 4984.50 777.50Q4919 810 4839 810ZM4837 400Q4799 400 4775 421Q4751 442 4743 482L4925 482Q4917 442 4894.50 421Q4872 400 4837 400Z"/>
    <path id="b-base-09-u" data-source="LINESeedSansTH_W_XBd.woff2" d="M5380 810Q5287 810 5235.50 758Q5184 706 5184 615L5184 284Q5184 277 5188.50 273Q5193 269 5200 269L5348 269Q5355 269 5359.50 273Q5364 277 5364 284L5364 548Q5364 603 5382 627.50Q5400 652 5439 652Q5479 652 5503 622Q5527 592 5527 535L5527 284Q5527 277 5531.50 273Q5536 269 5543 269L5691 269Q5698 269 5702.50 273Q5707 277 5707 284L5707 784Q5707 800 5691 800L5566 800Q5549 800 5549 784L5547 736Q5489 810 5380 810Z"/>
    <path id="b-base-10-e" data-source="LINESeedSansTH_W_XBd.woff2" d="M6039 810Q5956 810 5893 775Q5830 740 5795.50 677.50Q5761 615 5761 534Q5761 453 5795.50 391Q5830 329 5893 294Q5956 259 6039 259Q6126 259 6187 297.50Q6248 336 6277.50 405Q6307 474 6302 565Q6301 580 6285 580L5943 580Q5953 619 5978 640Q6003 661 6040 661Q6100 661 6128 623Q6137 613 6149 616L6277 659Q6287 664 6287 672L6285 680Q6250 745 6184.50 777.50Q6119 810 6039 810ZM6037 400Q5999 400 5975 421Q5951 442 5943 482L6125 482Q6117 442 6094.50 421Q6072 400 6037 400Z" clip-path="url(#b-final-e-notch-clip)"/>
  </g>
</svg>
