<?xml version="1.0" encoding="UTF-8"?>
<svg xmlns="http://www.w3.org/2000/svg" width="720" height="124.35" viewBox="0 0 6369 1100" role="img" aria-label="barber queue" data-status="candidate-reference-only" data-candidate="C Open Turn" preserveAspectRatio="xMidYMid meet">
  <title>Candidate C — Open Turn — barber queue wordmark sketch</title>
  <desc>Reference-led source-owned outlined SVG candidate. Exact lowercase wording: barber queue. Status: candidate for human review only; not approved for runtime or derived glyph use.</desc>
  <metadata>
    <bq:wordmark xmlns:bq="https://barber-queue.local/wordmark-metadata">
      <bq:status>candidate-reference-only</bq:status>
      <bq:gate>HUMAN_REVIEW_BARBER_QUEUE_WORDMARK_R1</bq:gate>
      <bq:wording>barber queue</bq:wording>
      <bq:construction>LINE Seed Sans TH ExtraBold source outlines; source q retained and its descender customized with an overlapping continuous foot; one attached custom final-e terminal.</bq:construction>
      <bq:source-regular-sha256>caf74c95ba957707253e40747d8364c937970df80551ab0766afc073d1fd90d6</bq:source-regular-sha256>
      <bq:source-bold-sha256>63a428a7989a73de4e908092717de3a70a2c128b7b01b35a3821f39db22a2003</bq:source-bold-sha256>
      <bq:source-extra-bold-sha256>d3650b99c0ba298365c7a8a95fcc628421d5a8e23fc99484a23a52f3c855c99b</bq:source-extra-bold-sha256>
    </bq:wordmark>
  </metadata>
  <g id="wordmark-c" fill="#3A2D25" fill-rule="nonzero">
    <path id="c-base-00-b" data-source="LINESeedSansTH_W_XBd.woff2" d="M437 810Q337 810 278 737L276 784Q276 791 271.50 795.50Q267 800 259 800L134 800Q118 800 118 784L118 66Q118 50 134 50L282 50Q298 50 298 66L298 310Q354 259 437 259Q510 259 566 293.50Q622 328 653 390Q684 452 684 534Q684 616 653 678.50Q622 741 566 775.50Q510 810 437 810ZM393 652Q442 652 472 619Q502 586 502 534Q502 482 472 449.50Q442 417 393 417Q344 417 314 449.50Q284 482 284 534Q284 586 314 619Q344 652 393 652Z"/>
    <path id="c-base-01-a" data-source="LINESeedSansTH_W_XBd.woff2" d="M948 810Q875 810 819 775.50Q763 741 732 678.50Q701 616 701 534Q701 452 732 390Q763 328 819 293.50Q875 259 948 259Q1048 259 1107 331L1109 284Q1109 277 1113.50 273Q1118 269 1125 269L1251 269Q1258 269 1262.50 273Q1267 277 1267 284L1267 784Q1267 800 1251 800L1125 800Q1118 800 1113.50 795.50Q1109 791 1109 784L1107 737Q1048 810 948 810ZM992 652Q1041 652 1071 619Q1101 586 1101 534Q1101 482 1071 449.50Q1041 417 992 417Q943 417 913 449.50Q883 482 883 534Q883 586 913 619Q943 652 992 652Z"/>
    <path id="c-base-02-r" data-source="LINESeedSansTH_W_XBd.woff2" d="M1349 800Q1333 800 1333 784L1333 284Q1333 277 1337.50 273Q1342 269 1349 269L1474 269Q1491 269 1491 284L1494 338Q1520 300 1560.50 281Q1601 262 1650 262Q1673 262 1688 266Q1702 271 1702 284L1702 421Q1702 428 1697 432Q1692 436 1684 434Q1649 429 1633 429Q1605 429 1577 441.50Q1549 454 1531 479Q1513 504 1513 541L1513 784Q1513 800 1497 800Z"/>
    <path id="c-base-03-b" data-source="LINESeedSansTH_W_XBd.woff2" d="M2034 810Q1934 810 1875 737L1873 784Q1873 791 1868.50 795.50Q1864 800 1856 800L1731 800Q1715 800 1715 784L1715 66Q1715 50 1731 50L1879 50Q1895 50 1895 66L1895 310Q1951 259 2034 259Q2107 259 2163 293.50Q2219 328 2250 390Q2281 452 2281 534Q2281 616 2250 678.50Q2219 741 2163 775.50Q2107 810 2034 810ZM1990 652Q2039 652 2069 619Q2099 586 2099 534Q2099 482 2069 449.50Q2039 417 1990 417Q1941 417 1911 449.50Q1881 482 1881 534Q1881 586 1911 619Q1941 652 1990 652Z"/>
    <path id="c-base-04-e" data-source="LINESeedSansTH_W_XBd.woff2" d="M2576 810Q2493 810 2430 775Q2367 740 2332.50 677.50Q2298 615 2298 534Q2298 453 2332.50 391Q2367 329 2430 294Q2493 259 2576 259Q2663 259 2724 297.50Q2785 336 2814.50 405Q2844 474 2839 565Q2838 580 2822 580L2480 580Q2490 619 2515 640Q2540 661 2577 661Q2637 661 2665 623Q2674 613 2686 616L2814 659Q2824 664 2824 672L2822 680Q2787 745 2721.50 777.50Q2656 810 2576 810ZM2574 400Q2536 400 2512 421Q2488 442 2480 482L2662 482Q2654 442 2631.50 421Q2609 400 2574 400Z"/>
    <path id="c-base-05-r" data-source="LINESeedSansTH_W_XBd.woff2" d="M2886 800Q2870 800 2870 784L2870 284Q2870 277 2874.50 273Q2879 269 2886 269L3011 269Q3028 269 3028 284L3031 338Q3057 300 3097.50 281Q3138 262 3187 262Q3210 262 3225 266Q3239 271 3239 284L3239 421Q3239 428 3234 432Q3229 436 3221 434Q3186 429 3170 429Q3142 429 3114 441.50Q3086 454 3068 479Q3050 504 3050 541L3050 784Q3050 800 3034 800Z"/>
    <path id="c-base-06-q" data-source="LINESeedSansTH_W_XBd.woff2" d="M3772 1018Q3756 1018 3756 1002L3756 759Q3700 810 3617 810Q3544 810 3488 775.50Q3432 741 3401 678.50Q3370 616 3370 534Q3370 452 3401 390Q3432 328 3488 293.50Q3544 259 3617 259Q3717 259 3776 331L3778 284Q3778 277 3782.50 273Q3787 269 3794 269L3920 269Q3927 269 3931.50 273Q3936 277 3936 284L3936 1002Q3936 1018 3920 1018ZM3661 652Q3710 652 3740 619Q3770 586 3770 534Q3770 482 3740 449.50Q3710 417 3661 417Q3612 417 3582 449.50Q3552 482 3552 534Q3552 586 3582 619Q3612 652 3661 652Z"/>
    <path id="c-base-07-u" data-source="LINESeedSansTH_W_XBd.woff2" d="M4214 810Q4121 810 4069.50 758Q4018 706 4018 615L4018 284Q4018 277 4022.50 273Q4027 269 4034 269L4182 269Q4189 269 4193.50 273Q4198 277 4198 284L4198 548Q4198 603 4216 627.50Q4234 652 4273 652Q4313 652 4337 622Q4361 592 4361 535L4361 284Q4361 277 4365.50 273Q4370 269 4377 269L4525 269Q4532 269 4536.50 273Q4541 277 4541 284L4541 784Q4541 800 4525 800L4400 800Q4383 800 4383 784L4381 736Q4323 810 4214 810Z"/>
    <path id="c-base-08-e" data-source="LINESeedSansTH_W_XBd.woff2" d="M4848 810Q4765 810 4702 775Q4639 740 4604.50 677.50Q4570 615 4570 534Q4570 453 4604.50 391Q4639 329 4702 294Q4765 259 4848 259Q4935 259 4996 297.50Q5057 336 5086.50 405Q5116 474 5111 565Q5110 580 5094 580L4752 580Q4762 619 4787 640Q4812 661 4849 661Q4909 661 4937 623Q4946 613 4958 616L5086 659Q5096 664 5096 672L5094 680Q5059 745 4993.50 777.50Q4928 810 4848 810ZM4846 400Q4808 400 4784 421Q4760 442 4752 482L4934 482Q4926 442 4903.50 421Q4881 400 4846 400Z"/>
    <path id="c-base-09-u" data-source="LINESeedSansTH_W_XBd.woff2" d="M5344 810Q5251 810 5199.50 758Q5148 706 5148 615L5148 284Q5148 277 5152.50 273Q5157 269 5164 269L5312 269Q5319 269 5323.50 273Q5328 277 5328 284L5328 548Q5328 603 5346 627.50Q5364 652 5403 652Q5443 652 5467 622Q5491 592 5491 535L5491 284Q5491 277 5495.50 273Q5500 269 5507 269L5655 269Q5662 269 5666.50 273Q5671 277 5671 284L5671 784Q5671 800 5655 800L5530 800Q5513 800 5513 784L5511 736Q5453 810 5344 810Z"/>
    <path id="c-base-10-e" data-source="LINESeedSansTH_W_XBd.woff2" d="M5978 810Q5895 810 5832 775Q5769 740 5734.50 677.50Q5700 615 5700 534Q5700 453 5734.50 391Q5769 329 5832 294Q5895 259 5978 259Q6065 259 6126 297.50Q6187 336 6216.50 405Q6246 474 6241 565Q6240 580 6224 580L5882 580Q5892 619 5917 640Q5942 661 5979 661Q6039 661 6067 623Q6076 613 6088 616L6216 659Q6226 664 6226 672L6224 680Q6189 745 6123.50 777.50Q6058 810 5978 810ZM5976 400Q5938 400 5914 421Q5890 442 5882 482L6064 482Q6056 442 6033.50 421Q6011 400 5976 400Z"/>
  </g>
  <path id="c-custom-q-descender" data-source="custom-attached-geometry" fill="#3A2D25" d="M3769 912H3881C3887 951 3913 974 3954 974C3975 974 3993 967 4009 954V1021C3987 1031 3962 1036 3934 1036C3859 1036 3805 995 3795 932H3769Z"/>
  <path id="c-custom-final-e-terminal" data-source="custom-attached-geometry" fill="#E7A77C" d="M6095 500C6143 493 6195 500 6243 528C6264 540 6279 559 6285 582L6285 640C6257 609 6222 585 6183 576C6149 568 6119 572 6095 584Z"/>
</svg>
