<?xml version="1.0" encoding="UTF-8"?>
<svg xmlns="http://www.w3.org/2000/svg" width="720" height="123.90" viewBox="0 0 6276 1080" role="img" aria-label="barber queue" data-status="candidate-reference-only" data-candidate="A Quiet Rhythm" preserveAspectRatio="xMidYMid meet">
  <title>Candidate A — Quiet Rhythm — barber queue wordmark sketch</title>
  <desc>Reference-led source-owned outlined SVG candidate. Exact lowercase wording: barber queue. Status: candidate for human review only; not approved for runtime or derived glyph use.</desc>
  <metadata>
    <bq:wordmark xmlns:bq="https://barber-queue.local/wordmark-metadata">
      <bq:status>candidate-reference-only</bq:status>
      <bq:gate>HUMAN_REVIEW_BARBER_QUEUE_WORDMARK_R1</bq:gate>
      <bq:wording>barber queue</bq:wording>
      <bq:construction>LINE Seed Sans TH Bold source outlines; compact manual spacing; one attached custom apricot terminal on the final e.</bq:construction>
      <bq:source-regular-sha256>caf74c95ba957707253e40747d8364c937970df80551ab0766afc073d1fd90d6</bq:source-regular-sha256>
      <bq:source-bold-sha256>63a428a7989a73de4e908092717de3a70a2c128b7b01b35a3821f39db22a2003</bq:source-bold-sha256>
      <bq:source-extra-bold-sha256>d3650b99c0ba298365c7a8a95fcc628421d5a8e23fc99484a23a52f3c855c99b</bq:source-extra-bold-sha256>
    </bq:wordmark>
  </metadata>
  <g id="wordmark-a" fill="#3A2D25" fill-rule="nonzero">
    <path id="a-base-00-b" data-source="LINESeedSansTH_W_Bd.woff2" d="M421 810Q367 810 323.50 789Q280 768 252 729L249 787Q249 800 235 800L141 800Q128 800 128 787L128 63Q128 50 141 50L245 50Q258 50 258 63L258 345Q287 310 329 291Q371 272 421 272Q494 272 549 306Q604 340 633.50 401Q663 462 663 541Q663 620 633.50 681Q604 742 549 776Q494 810 421 810ZM389 692Q451 692 490 650Q529 608 529 541Q529 474 490 432Q451 390 389 390Q327 390 288 432Q249 474 249 541Q249 608 288 650Q327 692 389 692Z"/>
    <path id="a-base-01-a" data-source="LINESeedSansTH_W_Bd.woff2" d="M955 810Q882 810 827 776Q772 742 742.50 681Q713 620 713 541Q713 462 742.50 401Q772 340 827 306Q882 272 955 272Q1009 272 1052.50 293Q1096 314 1124 353L1127 295Q1127 282 1141 282L1235 282Q1248 282 1248 295L1248 787Q1248 800 1235 800L1141 800Q1127 800 1127 787L1124 729Q1096 768 1052.50 789Q1009 810 955 810ZM987 692Q1049 692 1088 650Q1127 608 1127 541Q1127 474 1088 432Q1049 390 987 390Q925 390 886 432Q847 474 847 541Q847 608 886 650Q925 692 987 692Z"/>
    <path id="a-base-02-r" data-source="LINESeedSansTH_W_Bd.woff2" d="M1368 800Q1355 800 1355 787L1355 295Q1355 282 1368 282L1462 282Q1476 282 1476 295L1479 360Q1505 319 1547 297Q1589 275 1637 275Q1657 275 1672 278Q1683 281 1683 292L1683 395Q1683 406 1672 406Q1662 406 1647.50 404Q1633 402 1621 402Q1585 402 1554 417.50Q1523 433 1504 463Q1485 493 1485 532L1485 787Q1485 800 1472 800Z"/>
    <path id="a-base-03-b" data-source="LINESeedSansTH_W_Bd.woff2" d="M2034 810Q1980 810 1936.50 789Q1893 768 1865 729L1862 787Q1862 800 1848 800L1754 800Q1741 800 1741 787L1741 63Q1741 50 1754 50L1858 50Q1871 50 1871 63L1871 345Q1900 310 1942 291Q1984 272 2034 272Q2107 272 2162 306Q2217 340 2246.50 401Q2276 462 2276 541Q2276 620 2246.50 681Q2217 742 2162 776Q2107 810 2034 810ZM2002 692Q2064 692 2103 650Q2142 608 2142 541Q2142 474 2103 432Q2064 390 2002 390Q1940 390 1901 432Q1862 474 1862 541Q1862 608 1901 650Q1940 692 2002 692Z"/>
    <path id="a-base-04-e" data-source="LINESeedSansTH_W_Bd.woff2" d="M2588 810Q2508 810 2448.50 776Q2389 742 2357.50 680.50Q2326 619 2326 541Q2326 463 2357.50 401.50Q2389 340 2448.50 306Q2508 272 2588 272Q2666 272 2722.50 308.50Q2779 345 2807 412Q2835 479 2833 568Q2832 581 2819 581L2464 581Q2473 635 2505.50 665Q2538 695 2589 695Q2667 695 2703 636Q2708 627 2720 630L2809 661Q2822 666 2816 678Q2783 744 2723 777Q2663 810 2588 810ZM2587 387Q2541 387 2509.50 412.50Q2478 438 2466 484L2694 484Q2685 438 2657 412.50Q2629 387 2587 387Z"/>
    <path id="a-base-05-r" data-source="LINESeedSansTH_W_Bd.woff2" d="M2917 800Q2904 800 2904 787L2904 295Q2904 282 2917 282L3011 282Q3025 282 3025 295L3028 360Q3054 319 3096 297Q3138 275 3186 275Q3206 275 3221 278Q3232 281 3232 292L3232 395Q3232 406 3221 406Q3211 406 3196.50 404Q3182 402 3170 402Q3134 402 3103 417.50Q3072 433 3053 463Q3034 493 3034 532L3034 787Q3034 800 3021 800Z"/>
    <path id="a-base-06-q" data-source="LINESeedSansTH_W_Bd.woff2" d="M3842 1018Q3829 1018 3829 1005L3829 737Q3800 772 3758 791Q3716 810 3666 810Q3593 810 3538 776Q3483 742 3453.50 681Q3424 620 3424 541Q3424 462 3453.50 401Q3483 340 3538 306Q3593 272 3666 272Q3720 272 3763.50 293Q3807 314 3835 353L3838 295Q3838 282 3852 282L3946 282Q3959 282 3959 295L3959 1005Q3959 1018 3946 1018ZM3698 692Q3760 692 3799 650Q3838 608 3838 541Q3838 474 3799 432Q3760 390 3698 390Q3636 390 3597 432Q3558 474 3558 541Q3558 608 3597 650Q3636 692 3698 692Z"/>
    <path id="a-base-07-u" data-source="LINESeedSansTH_W_Bd.woff2" d="M4229 810Q4139 810 4089.50 759.50Q4040 709 4040 619L4040 295Q4040 282 4053 282L4157 282Q4170 282 4170 295L4170 566Q4170 631 4194 661.50Q4218 692 4269 692Q4320 692 4356 654Q4392 616 4392 546L4392 295Q4392 282 4405 282L4509 282Q4522 282 4522 295L4522 787Q4522 800 4509 800L4415 800Q4401 800 4401 787L4398 728Q4370 768 4325 789Q4280 810 4229 810Z"/>
    <path id="a-base-08-e" data-source="LINESeedSansTH_W_Bd.woff2" d="M4836 810Q4756 810 4696.50 776Q4637 742 4605.50 680.50Q4574 619 4574 541Q4574 463 4605.50 401.50Q4637 340 4696.50 306Q4756 272 4836 272Q4914 272 4970.50 308.50Q5027 345 5055 412Q5083 479 5081 568Q5080 581 5067 581L4712 581Q4721 635 4753.50 665Q4786 695 4837 695Q4915 695 4951 636Q4956 627 4968 630L5057 661Q5070 666 5064 678Q5031 744 4971 777Q4911 810 4836 810ZM4835 387Q4789 387 4757.50 412.50Q4726 438 4714 484L4942 484Q4933 438 4905 412.50Q4877 387 4835 387Z"/>
    <path id="a-base-09-u" data-source="LINESeedSansTH_W_Bd.woff2" d="M5329 810Q5239 810 5189.50 759.50Q5140 709 5140 619L5140 295Q5140 282 5153 282L5257 282Q5270 282 5270 295L5270 566Q5270 631 5294 661.50Q5318 692 5369 692Q5420 692 5456 654Q5492 616 5492 546L5492 295Q5492 282 5505 282L5609 282Q5622 282 5622 295L5622 787Q5622 800 5609 800L5515 800Q5501 800 5501 787L5498 728Q5470 768 5425 789Q5380 810 5329 810Z"/>
    <path id="a-base-10-e" data-source="LINESeedSansTH_W_Bd.woff2" d="M5936 810Q5856 810 5796.50 776Q5737 742 5705.50 680.50Q5674 619 5674 541Q5674 463 5705.50 401.50Q5737 340 5796.50 306Q5856 272 5936 272Q6014 272 6070.50 308.50Q6127 345 6155 412Q6183 479 6181 568Q6180 581 6167 581L5812 581Q5821 635 5853.50 665Q5886 695 5937 695Q6015 695 6051 636Q6056 627 6068 630L6157 661Q6170 666 6164 678Q6131 744 6071 777Q6011 810 5936 810ZM5935 387Q5889 387 5857.50 412.50Q5826 438 5814 484L6042 484Q6033 438 6005 412.50Q5977 387 5935 387Z"/>
  </g>
  <path id="a-custom-final-e-terminal" data-source="custom-attached-geometry" fill="#E7A77C" d="M6028 508C6098 498 6154 504 6190 522L6190 578C6154 560 6098 554 6028 564Z"/>
</svg>
