<svg id="joined-tail-q" xmlns="http://www.w3.org/2000/svg" viewBox="0 0 120 120" color="#3a2d25" role="img" aria-labelledby="title desc">
  <title id="title">Barber Queue joined-tail Q redraw candidate</title>
  <desc id="desc">Selected-source SVG redraw candidate. Human review gate: HUMAN_REVIEW_BARBER_QUEUE_JOINED_TAIL_Q_SVG_R1.</desc>
  <metadata>status=selected-source/svg-redraw-candidate; gate=HUMAN_REVIEW_BARBER_QUEUE_JOINED_TAIL_Q_SVG_R1; source=direction-c-joined-tail</metadata>
  <g id="mark" fill="currentColor">
    <path fill-rule="evenodd" d="M42 8H76C94 8 106 22 106 42V70C106 82 103 92 96 99C91 104 84 106 74 106H42C23 106 11 92 11 72V42C11 22 23 8 42 8ZM51 29C42 29 36 36 36 45V64C36 73 42 80 51 80H73C77 80 80 82 82 84L112 110L107 95L92 81C88 77 85 72 85 66V45C85 36 79 29 70 29H51Z"/>
    <path d="M58 62H65C69 62 72 64 75 67L112 105C114 107 115 110 114 112C113 115 111 116 108 116H96C92 116 89 114 87 112L54 73C52 71 52 68 53 66C54 63 56 62 58 62Z"/>
  </g>
</svg>
