<svg xmlns="http://www.w3.org/2000/svg" viewBox="0 0 120 120" role="img" aria-labelledby="bq-motion-title bq-motion-desc" color="#3A2D25">
  <title id="bq-motion-title">BQ Motion logo candidate</title>
  <desc id="bq-motion-desc">A compact B silhouette shares its lower counter with a Q and passes into a forward diagonal exit.</desc>
  <path fill="currentColor" fill-rule="evenodd" d="M20 15h38c18 0 30 9 30 24 0 9-5 16-14 20 12 4 19 12 19 24 0 16-13 25-34 25H20V15Zm20 18v17h16c8 0 13-3 13-9s-5-8-13-8H40Zm1 45a17 12 0 1 0 34 0 17 12 0 1 0-34 0Z"/>
  <path d="m59 80 9-10 40 31-10 10Z" fill="currentColor"/>
</svg>
